# xmcd
# 
# Track frame offsets:
#     150
#     11933
#     25640
#     40330
#     52395
#     68525
#     83624
#     97792
#     109277
#     126989
#     137493
#     153061
#     164043
#     179401
# 
# Disc length: 2578
# 
# Revision: 0
# Processed by: cddbd v1.5.2PL0 Copyright (c) Steve Scherf et al.
# Submitted via: fre:ac v1.0.27
# 
DISCID=b50a100e
DTITLE=J.J. Cale - Travel-Log
DYEAR=1990
DGENRE=Blues
TTITLE0=Shanghaid
TTITLE1=Hold On Baby
TTITLE2=No Time
TTITLE3=Lady Luck
TTITLE4=Disadvantage
TTITLE5=Lean On Me
TTITLE6=End Of The Line
TTITLE7=New Orleans
TTITLE8=Tijuana
TTITLE9=That Kind of Thing
TTITLE10=Who's Talking
TTITLE11=Change Your Mind
TTITLE12=Humdinger
TTITLE13=River Boat Song
EXTD=
EXTT0=
EXTT1=
EXTT2=
EXTT3=
EXTT4=
EXTT5=
EXTT6=
EXTT7=
EXTT8=
EXTT9=
EXTT10=
EXTT11=
EXTT12=
EXTT13=
PLAYORDER=
